<svg width="44" height="44" viewBox="0 0 44 44" fill="none" xmlns="http://www.w3.org/2000/svg">
<path d="M17 2.88675C20.094 1.10042 23.906 1.10042 27 2.88675L36.0526 8.11325C39.1466 9.89958 41.0526 13.2008 41.0526 16.7735V27.2265C41.0526 30.7992 39.1466 34.1004 36.0526 35.8868L27 41.1132C23.906 42.8996 20.094 42.8996 17 41.1132L7.94744 35.8868C4.85343 34.1004 2.94744 30.7992 2.94744 27.2265V16.7735C2.94744 13.2008 4.85343 9.89958 7.94744 8.11325L17 2.88675Z" fill="#CEC9C1"/>
<path d="M22.9297 20.1875H21.5117C20.9102 20.1875 20.4766 20.0352 20.2109 19.7305C19.9453 19.418 19.8125 19.0078 19.8125 18.5C19.8125 17.375 20.6523 16.8125 22.332 16.8125C23.9102 16.8125 25.0977 17.0469 25.8945 17.5156L25.2148 18.0312C24.668 17.7812 23.707 17.6562 22.332 17.6562C21.6602 17.6562 21.207 17.7305 20.9727 17.8789C20.7461 18.0273 20.6328 18.2344 20.6328 18.5C20.6328 18.7656 20.6953 18.9727 20.8203 19.1211C20.9453 19.2695 21.1758 19.3438 21.5117 19.3438H22.9648C24.0195 19.3438 24.9688 19.5234 25.8125 19.8828C26.6641 20.2422 27.3633 20.7344 27.9102 21.3594C28.457 21.9766 28.875 22.6914 29.1641 23.5039C29.4531 24.3086 29.5977 25.1719 29.5977 26.0938C29.5977 26.8438 29.4922 27.5547 29.2812 28.2266C29.0703 28.8984 28.75 29.5156 28.3203 30.0781C27.8984 30.6406 27.3867 31.1289 26.7852 31.543C26.1914 31.9492 25.4805 32.2656 24.6523 32.4922C23.832 32.7266 22.9414 32.8438 21.9805 32.8438C20.4727 32.8438 19.0586 32.6133 17.7383 32.1523C16.4258 31.6992 15.332 31.0625 14.457 30.2422L15.1367 29.7383C15.9336 30.457 16.9297 31.0156 18.125 31.4141C19.3281 31.8047 20.6133 32 21.9805 32C23.0508 32 24.0156 31.8477 24.875 31.543C25.7422 31.2305 26.4531 30.8047 27.0078 30.2656C27.5703 29.7266 28 29.1016 28.2969 28.3906C28.6016 27.6797 28.7539 26.9141 28.7539 26.0938C28.7539 25.0078 28.5352 24.0273 28.0977 23.1523C27.6602 22.2695 26.9922 21.5547 26.0938 21.0078C25.2031 20.4609 24.1484 20.1875 22.9297 20.1875ZM21.5117 21.0312H22.8477C24.4336 21.0312 25.6719 21.5156 26.5625 22.4844C27.4609 23.4531 27.9102 24.6562 27.9102 26.0938C27.9102 27.5547 27.3906 28.7656 26.3516 29.7266C25.3125 30.6797 23.8555 31.1562 21.9805 31.1562C20.7305 31.1562 19.5625 30.9844 18.4766 30.6406C17.3906 30.2969 16.4883 29.8125 15.7695 29.1875L16.4258 28.6602C17.0664 29.1836 17.8711 29.5898 18.8398 29.8789C19.8164 30.168 20.8633 30.3125 21.9805 30.3125C23.6289 30.3125 24.8867 29.918 25.7539 29.1289C26.6289 28.3398 27.0664 27.3281 27.0664 26.0938C27.0664 24.875 26.6992 23.8672 25.9648 23.0703C25.2383 22.2734 24.1953 21.875 22.8359 21.875H21.5117C20.3711 21.875 19.5156 21.5625 18.9453 20.9375C18.375 20.3125 18.0898 19.5 18.0898 18.5C18.0898 17.5 18.4414 16.6875 19.1445 16.0625C19.8555 15.4375 20.918 15.125 22.332 15.125C23.3242 15.125 24.2461 15.2422 25.0977 15.4766C25.9492 15.7031 26.6523 16.0312 27.207 16.4609L26.5391 16.9766C25.5625 16.3047 24.1602 15.9688 22.332 15.9688C21.1523 15.9688 20.2891 16.2031 19.7422 16.6719C19.2031 17.1328 18.9336 17.7422 18.9336 18.5C18.9336 19.2656 19.1328 19.8789 19.5312 20.3398C19.9375 20.8008 20.5977 21.0312 21.5117 21.0312ZM21.5117 22.7188H22.8008C23.9414 22.7188 24.7969 23.0352 25.3672 23.668C25.9375 24.3008 26.2227 25.1094 26.2227 26.0938C26.2227 27.0938 25.8672 27.9062 25.1562 28.5312C24.4531 29.1562 23.3945 29.4688 21.9805 29.4688C20.9883 29.4688 20.0625 29.3555 19.2031 29.1289C18.3516 28.8945 17.6484 28.5625 17.0938 28.1328L17.7617 27.6172C18.7383 28.2891 20.1445 28.625 21.9805 28.625C23.1602 28.625 24.0195 28.3945 24.5586 27.9336C25.1055 27.4648 25.3789 26.8516 25.3789 26.0938C25.3789 25.3359 25.1758 24.7266 24.7695 24.2656C24.3633 23.7969 23.7031 23.5625 22.7891 23.5625H21.5117C19.9102 23.5625 18.6562 23.0859 17.75 22.1328C16.8516 21.1719 16.4023 19.9609 16.4023 18.5C16.4023 17.0391 16.9219 15.832 17.9609 14.8789C19 13.918 20.457 13.4375 22.332 13.4375C23.582 13.4375 24.7461 13.6094 25.8242 13.9531C26.9102 14.2969 27.8125 14.7812 28.5312 15.4062L27.875 15.9336C27.2344 15.4102 26.4297 15.0039 25.4609 14.7148C24.4922 14.4258 23.4492 14.2812 22.332 14.2812C20.6836 14.2812 19.4219 14.6758 18.5469 15.4648C17.6797 16.2539 17.2461 17.2656 17.2461 18.5C17.2461 19.7266 17.6133 20.7383 18.3477 21.5352C19.082 22.3242 20.1367 22.7188 21.5117 22.7188ZM21.5117 24.4062H22.8008C23.4023 24.4062 23.8359 24.5625 24.1016 24.875C24.3672 25.1875 24.5 25.5938 24.5 26.0938C24.5 27.2188 23.6602 27.7812 21.9805 27.7812C20.3945 27.7812 19.2031 27.5469 18.4062 27.0781L19.0859 26.5625C19.6328 26.8125 20.5977 26.9375 21.9805 26.9375C22.6523 26.9375 23.1016 26.8633 23.3281 26.7148C23.5625 26.5664 23.6797 26.3594 23.6797 26.0938C23.6797 25.8359 23.6133 25.6328 23.4805 25.4844C23.3555 25.3281 23.1211 25.25 22.7773 25.25H21.5117C20.4336 25.25 19.457 25.0742 18.582 24.7227C17.7148 24.3711 17 23.8867 16.4375 23.2695C15.8828 22.6523 15.457 21.9375 15.1602 21.125C14.8633 20.3125 14.7148 19.4375 14.7148 18.5C14.7148 17.75 14.8203 17.0391 15.0312 16.3672C15.2422 15.6953 15.5586 15.0781 15.9805 14.5156C16.4102 13.9531 16.9219 13.4688 17.5156 13.0625C18.1172 12.6484 18.8281 12.3281 19.6484 12.1016C20.4766 11.8672 21.3711 11.75 22.332 11.75C23.8398 11.75 25.25 11.9805 26.5625 12.4414C27.875 12.8945 28.9688 13.5312 29.8438 14.3516L29.1641 14.8555C28.3672 14.1367 27.3711 13.582 26.1758 13.1914C24.9805 12.793 23.6992 12.5938 22.332 12.5938C21.2617 12.5938 20.293 12.75 19.4258 13.0625C18.5664 13.3672 17.8555 13.7891 17.293 14.3281C16.7383 14.8672 16.3086 15.4922 16.0039 16.2031C15.707 16.9141 15.5586 17.6797 15.5586 18.5C15.5586 19.6016 15.7812 20.5938 16.2266 21.4766C16.6719 22.3594 17.3516 23.0703 18.2656 23.6094C19.1797 24.1406 20.2617 24.4062 21.5117 24.4062Z" fill="white"/>
</svg>
